<svg id="Layer_1" data-name="Layer 1" xmlns="http://www.w3.org/2000/svg" viewBox="0 0 223 45.6"><defs><style>.cls-1{fill:#fff;}</style></defs><title>Logo-white</title><path class="cls-1" d="M38.2,56H29L17,22.9h9.8l6.9,24.4h.1l7.1-24.4h9.3Z" transform="translate(-17 -11.3)"/><path class="cls-1" d="M79.3,49.6c0,3.9.9,4.8,1.9,5.2V56H71.7a15.87,15.87,0,0,1-.8-3.9,13.43,13.43,0,0,1-10.8,4.8c-5,0-10.1-2.8-10.1-9.7,0-6.5,4.1-9.8,9.7-10.6l7.9-1.2c1.4-.2,3.1-.8,3.1-2.6,0-3.7-3.5-3.9-5.8-3.9-4.4,0-5.1,2.7-5.4,4.6H51C52.1,23.4,59.2,22,66,22c4.7,0,13.3,1.4,13.3,9.6Zm-8.6-9.7c-.9.7-2.3,1.2-5.9,1.8-3.3.6-6,1.4-6,5a3.82,3.82,0,0,0,4.1,4c3.9,0,7.8-2.5,7.8-6.5Z" transform="translate(-17 -11.3)"/><path class="cls-1" d="M93.3,56H84.5V11.3h8.8Z" transform="translate(-17 -11.3)"/><path class="cls-1" d="M110,22.9h5.4v6.2H110v18c0,1.9.1,2.7,3.6,2.7.6,0,1.2-.1,1.8-.1v6.6c-1.4.1-2.8.1-4.1.1h-1.1c-7.6,0-9-2.9-9-7.2V29.1H96.7V22.9h4.5v-9H110Z" transform="translate(-17 -11.3)"/><path class="cls-1" d="M149.6,46.3c-2.3,8-9,10.6-14.7,10.6-9.4,0-16.6-4.5-16.6-18.1,0-4,1.4-16.8,16-16.8,6.6,0,15.7,3.1,15.7,18.3v1.6H127.1c.2,2.5.8,8.1,7.8,8.1,2.4,0,4.9-1.3,5.6-3.6h9.1v-.1ZM141,36.1c-.5-5.4-3.9-7-6.8-7-4.1,0-6.3,2.6-6.8,7Z" transform="translate(-17 -11.3)"/><path class="cls-1" d="M182.9,43.9c-.3,3.4-3,13-15.2,13-12.5,0-15.4-9.5-15.4-16.5,0-10.7,4.7-18.4,16-18.4,5.3,0,13.9,2.4,14.7,12.7h-8.9c-.4-2.1-1.6-5.4-5.4-5.4h-.4c-5.5,0-7,5.5-7,9.6,0,3.6.1,10.8,6.8,10.8,4.5,0,6-4.2,6-5.8Z" transform="translate(-17 -11.3)"/><path class="cls-1" d="M217,56h-8.8V35.9c0-2.4-.1-6.5-5.7-6.5-3.9,0-6.9,2.6-6.9,7.7v19h-8.8V11.3h8.8V27.2h.1c1.1-2.7,4.9-5.2,9.6-5.2,6.5,0,11.6,3.8,11.6,11.1L217,56Z" transform="translate(-17 -11.3)"/><rect class="cls-1" x="205.5" y="38.5" width="17.5" height="6.2"/></svg>