<?xml version="1.0" encoding="utf-8"?>
<!-- Generator: Adobe Illustrator 22.0.0, SVG Export Plug-In . SVG Version: 6.00 Build 0)  -->
<svg version="1.1" id="Layer_1" xmlns="http://www.w3.org/2000/svg" xmlns:xlink="http://www.w3.org/1999/xlink" x="0px" y="0px"
	 viewBox="0 0 257 72" style="enable-background:new 0 0 257 72;" xml:space="preserve">
<style type="text/css">
	.st0{fill:#FFFFFF;}
</style>
<g>
	<path class="st0" d="M38.2,56H29L17,22.9h9.8l6.9,24.4h0.1l7.1-24.4h9.3L38.2,56z"/>
	<path class="st0" d="M79.3,49.6c0,3.9,0.9,4.8,1.9,5.2V56h-9.5c-0.5-1.6-0.6-2.1-0.8-3.9c-2,2.1-4.8,4.8-10.8,4.8
		c-5,0-10.1-2.8-10.1-9.7c0-6.5,4.1-9.8,9.7-10.6l7.9-1.2c1.4-0.2,3.1-0.8,3.1-2.6c0-3.7-3.5-3.9-5.8-3.9c-4.4,0-5.1,2.7-5.4,4.6H51
		C52.1,23.4,59.2,22,66,22c4.7,0,13.3,1.4,13.3,9.6V49.6z M70.7,39.9c-0.9,0.7-2.3,1.2-5.9,1.8c-3.3,0.6-6,1.4-6,5
		c0,3.1,2.4,4,4.1,4c3.9,0,7.8-2.5,7.8-6.5V39.9z"/>
	<path class="st0" d="M93.3,56h-8.8V11.3h8.8V56z"/>
	<path class="st0" d="M110,22.9h5.4v6.2H110v18c0,1.9,0.1,2.7,3.6,2.7c0.6,0,1.2-0.1,1.8-0.1v6.6c-1.4,0.1-2.8,0.1-4.1,0.1h-1.1
		c-7.6,0-9-2.9-9-7.2V29.1h-4.5v-6.2h4.5v-9h8.8C110,13.9,110,22.9,110,22.9z"/>
	<path class="st0" d="M149.6,46.3c-2.3,8-9,10.6-14.7,10.6c-9.4,0-16.6-4.5-16.6-18.1c0-4,1.4-16.8,16-16.8
		c6.6,0,15.7,3.1,15.7,18.3v1.6h-22.9c0.2,2.5,0.8,8.1,7.8,8.1c2.4,0,4.9-1.3,5.6-3.6h9.1V46.3z M141,36.1c-0.5-5.4-3.9-7-6.8-7
		c-4.1,0-6.3,2.6-6.8,7H141z"/>
	<path class="st0" d="M182.9,43.9c-0.3,3.4-3,13-15.2,13c-12.5,0-15.4-9.5-15.4-16.5c0-10.7,4.7-18.4,16-18.4
		c5.3,0,13.9,2.4,14.7,12.7h-8.9c-0.4-2.1-1.6-5.4-5.4-5.4h-0.4c-5.5,0-7,5.5-7,9.6c0,3.6,0.1,10.8,6.8,10.8c4.5,0,6-4.2,6-5.8
		H182.9z"/>
	<path class="st0" d="M217,56h-8.8V35.9c0-2.4-0.1-6.5-5.7-6.5c-3.9,0-6.9,2.6-6.9,7.7v19h-8.8V11.3h8.8v15.9h0.1
		c1.1-2.7,4.9-5.2,9.6-5.2c6.5,0,11.6,3.8,11.6,11.1L217,56L217,56z"/>
	<rect x="222.5" y="49.8" class="st0" width="17.5" height="6.2"/>
</g>
</svg>
